<svg xmlns="http://www.w3.org/2000/svg" viewBox="0 0 612 174" width="612" height="174" role="img" aria-label="VinaX">
  <title>VinaX</title>
  <rect x="24" y="24" width="35" height="7.5" rx="1" fill="#FF9933"/>
  <rect x="24" y="33" width="35" height="7.5" rx="1" fill="#FF9933"/>
  <rect x="120" y="24" width="35" height="7.5" rx="1" fill="#FF9933"/>
  <rect x="120" y="33" width="35" height="7.5" rx="1" fill="#FF9933"/>
  <rect x="168" y="24" width="35" height="7.5" rx="1" fill="#FF9933"/>
  <rect x="168" y="33" width="35" height="7.5" rx="1" fill="#FF9933"/>
  <rect x="456" y="24" width="35" height="7.5" rx="1" fill="#FF9933"/>
  <rect x="456" y="33" width="35" height="7.5" rx="1" fill="#FF9933"/>
  <rect x="552" y="24" width="35" height="7.5" rx="1" fill="#FF9933"/>
  <rect x="552" y="33" width="35" height="7.5" rx="1" fill="#FF9933"/>
  <rect x="24" y="42" width="35" height="7.5" rx="1" fill="#FF9933"/>
  <rect x="24" y="51" width="35" height="7.5" rx="1" fill="#FF9933"/>
  <rect x="120" y="42" width="35" height="7.5" rx="1" fill="#FF9933"/>
  <rect x="120" y="51" width="35" height="7.5" rx="1" fill="#FF9933"/>
  <rect x="468" y="42" width="35" height="7.5" rx="1" fill="#FF9933"/>
  <rect x="468" y="51" width="35" height="7.5" rx="1" fill="#FF9933"/>
  <rect x="540" y="42" width="35" height="7.5" rx="1" fill="#FF9933"/>
  <rect x="540" y="51" width="35" height="7.5" rx="1" fill="#FF9933"/>
  <rect x="36" y="60" width="35" height="7.5" rx="1" fill="#FF9933"/>
  <rect x="36" y="69" width="35" height="7.5" rx="1" fill="#FF9933"/>
  <rect x="108" y="60" width="35" height="7.5" rx="1" fill="#FF9933"/>
  <rect x="108" y="69" width="35" height="7.5" rx="1" fill="#FF9933"/>
  <rect x="168" y="60" width="35" height="7.5" rx="1" fill="#FF9933"/>
  <rect x="168" y="69" width="35" height="7.5" rx="1" fill="#FF9933"/>
  <rect x="216" y="60" width="95" height="7.5" rx="1" fill="#FF9933"/>
  <rect x="216" y="69" width="95" height="7.5" rx="1" fill="#FF9933"/>
  <rect x="348" y="60" width="95" height="7.5" rx="1" fill="#FF9933"/>
  <rect x="348" y="69" width="95" height="7.5" rx="1" fill="#FF9933"/>
  <rect x="480" y="60" width="35" height="7.5" rx="1" fill="#FF9933"/>
  <rect x="480" y="69" width="35" height="7.5" rx="1" fill="#FF9933"/>
  <rect x="528" y="60" width="35" height="7.5" rx="1" fill="#FF9933"/>
  <rect x="528" y="69" width="35" height="7.5" rx="1" fill="#FF9933"/>
  <rect x="36" y="78" width="35" height="7.5" rx="1" fill="#F8FAFC"/>
  <rect x="36" y="87" width="35" height="7.5" rx="1" fill="#F8FAFC"/>
  <rect x="108" y="78" width="35" height="7.5" rx="1" fill="#F8FAFC"/>
  <rect x="108" y="87" width="35" height="7.5" rx="1" fill="#F8FAFC"/>
  <rect x="168" y="78" width="35" height="7.5" rx="1" fill="#F8FAFC"/>
  <rect x="168" y="87" width="35" height="7.5" rx="1" fill="#F8FAFC"/>
  <rect x="216" y="78" width="35" height="7.5" rx="1" fill="#F8FAFC"/>
  <rect x="216" y="87" width="35" height="7.5" rx="1" fill="#F8FAFC"/>
  <rect x="288" y="78" width="35" height="7.5" rx="1" fill="#F8FAFC"/>
  <rect x="288" y="87" width="35" height="7.5" rx="1" fill="#F8FAFC"/>
  <rect x="336" y="78" width="35" height="7.5" rx="1" fill="#F8FAFC"/>
  <rect x="336" y="87" width="35" height="7.5" rx="1" fill="#F8FAFC"/>
  <rect x="408" y="78" width="35" height="7.5" rx="1" fill="#F8FAFC"/>
  <rect x="408" y="87" width="35" height="7.5" rx="1" fill="#F8FAFC"/>
  <rect x="492" y="78" width="59" height="7.5" rx="1" fill="#F8FAFC"/>
  <rect x="492" y="87" width="59" height="7.5" rx="1" fill="#F8FAFC"/>
  <rect x="48" y="96" width="35" height="7.5" rx="1" fill="#F8FAFC"/>
  <rect x="48" y="105" width="35" height="7.5" rx="1" fill="#F8FAFC"/>
  <rect x="96" y="96" width="35" height="7.5" rx="1" fill="#F8FAFC"/>
  <rect x="96" y="105" width="35" height="7.5" rx="1" fill="#F8FAFC"/>
  <rect x="168" y="96" width="35" height="7.5" rx="1" fill="#F8FAFC"/>
  <rect x="168" y="105" width="35" height="7.5" rx="1" fill="#F8FAFC"/>
  <rect x="216" y="96" width="35" height="7.5" rx="1" fill="#F8FAFC"/>
  <rect x="216" y="105" width="35" height="7.5" rx="1" fill="#F8FAFC"/>
  <rect x="288" y="96" width="35" height="7.5" rx="1" fill="#F8FAFC"/>
  <rect x="288" y="105" width="35" height="7.5" rx="1" fill="#F8FAFC"/>
  <rect x="336" y="96" width="35" height="7.5" rx="1" fill="#F8FAFC"/>
  <rect x="336" y="105" width="35" height="7.5" rx="1" fill="#F8FAFC"/>
  <rect x="408" y="96" width="35" height="7.5" rx="1" fill="#F8FAFC"/>
  <rect x="408" y="105" width="35" height="7.5" rx="1" fill="#F8FAFC"/>
  <rect x="480" y="96" width="35" height="7.5" rx="1" fill="#F8FAFC"/>
  <rect x="480" y="105" width="35" height="7.5" rx="1" fill="#F8FAFC"/>
  <rect x="528" y="96" width="35" height="7.5" rx="1" fill="#F8FAFC"/>
  <rect x="528" y="105" width="35" height="7.5" rx="1" fill="#F8FAFC"/>
  <rect x="60" y="114" width="59" height="7.5" rx="1" fill="#3CB043"/>
  <rect x="60" y="123" width="59" height="7.5" rx="1" fill="#3CB043"/>
  <rect x="168" y="114" width="35" height="7.5" rx="1" fill="#3CB043"/>
  <rect x="168" y="123" width="35" height="7.5" rx="1" fill="#3CB043"/>
  <rect x="216" y="114" width="35" height="7.5" rx="1" fill="#3CB043"/>
  <rect x="216" y="123" width="35" height="7.5" rx="1" fill="#3CB043"/>
  <rect x="288" y="114" width="35" height="7.5" rx="1" fill="#3CB043"/>
  <rect x="288" y="123" width="35" height="7.5" rx="1" fill="#3CB043"/>
  <rect x="336" y="114" width="35" height="7.5" rx="1" fill="#3CB043"/>
  <rect x="336" y="123" width="35" height="7.5" rx="1" fill="#3CB043"/>
  <rect x="408" y="114" width="35" height="7.5" rx="1" fill="#3CB043"/>
  <rect x="408" y="123" width="35" height="7.5" rx="1" fill="#3CB043"/>
  <rect x="468" y="114" width="35" height="7.5" rx="1" fill="#3CB043"/>
  <rect x="468" y="123" width="35" height="7.5" rx="1" fill="#3CB043"/>
  <rect x="540" y="114" width="35" height="7.5" rx="1" fill="#3CB043"/>
  <rect x="540" y="123" width="35" height="7.5" rx="1" fill="#3CB043"/>
  <rect x="72" y="132" width="35" height="7.5" rx="1" fill="#3CB043"/>
  <rect x="72" y="141" width="35" height="7.5" rx="1" fill="#3CB043"/>
  <rect x="168" y="132" width="35" height="7.5" rx="1" fill="#3CB043"/>
  <rect x="168" y="141" width="35" height="7.5" rx="1" fill="#3CB043"/>
  <rect x="216" y="132" width="35" height="7.5" rx="1" fill="#3CB043"/>
  <rect x="216" y="141" width="35" height="7.5" rx="1" fill="#3CB043"/>
  <rect x="288" y="132" width="35" height="7.5" rx="1" fill="#3CB043"/>
  <rect x="288" y="141" width="35" height="7.5" rx="1" fill="#3CB043"/>
  <rect x="348" y="132" width="95" height="7.5" rx="1" fill="#3CB043"/>
  <rect x="348" y="141" width="95" height="7.5" rx="1" fill="#3CB043"/>
  <rect x="456" y="132" width="35" height="7.5" rx="1" fill="#3CB043"/>
  <rect x="456" y="141" width="35" height="7.5" rx="1" fill="#3CB043"/>
  <rect x="552" y="132" width="35" height="7.5" rx="1" fill="#3CB043"/>
  <rect x="552" y="141" width="35" height="7.5" rx="1" fill="#3CB043"/>
  <circle cx="390" cy="105" r="17.099999999999998" fill="#FFFFFF" stroke="#1D4ED8" stroke-width="2.7359999999999998"/><g stroke="#1D4ED8" stroke-width="1.197"><line x1="390" y1="105" x2="404.71" y2="105.00"/><line x1="390" y1="105" x2="404.20" y2="108.81"/><line x1="390" y1="105" x2="402.74" y2="112.35"/><line x1="390" y1="105" x2="400.40" y2="115.40"/><line x1="390" y1="105" x2="397.35" y2="117.74"/><line x1="390" y1="105" x2="393.81" y2="119.20"/><line x1="390" y1="105" x2="390.00" y2="119.71"/><line x1="390" y1="105" x2="386.19" y2="119.20"/><line x1="390" y1="105" x2="382.65" y2="117.74"/><line x1="390" y1="105" x2="379.60" y2="115.40"/><line x1="390" y1="105" x2="377.26" y2="112.35"/><line x1="390" y1="105" x2="375.80" y2="108.81"/><line x1="390" y1="105" x2="375.29" y2="105.00"/><line x1="390" y1="105" x2="375.80" y2="101.19"/><line x1="390" y1="105" x2="377.26" y2="97.65"/><line x1="390" y1="105" x2="379.60" y2="94.60"/><line x1="390" y1="105" x2="382.65" y2="92.26"/><line x1="390" y1="105" x2="386.19" y2="90.80"/><line x1="390" y1="105" x2="390.00" y2="90.29"/><line x1="390" y1="105" x2="393.81" y2="90.80"/><line x1="390" y1="105" x2="397.35" y2="92.26"/><line x1="390" y1="105" x2="400.40" y2="94.60"/><line x1="390" y1="105" x2="402.74" y2="97.65"/><line x1="390" y1="105" x2="404.20" y2="101.19"/></g><circle cx="390" cy="105" r="3.42" fill="#1D4ED8"/>
</svg>
